<svg width="184" height="21" viewBox="0 0 184 21" fill="none" xmlns="http://www.w3.org/2000/svg">
<path d="M12.6215 15.2286C12.6215 16.3772 12.3412 17.3721 11.7897 18.2223C11.2382 19.0724 10.4245 19.7236 9.35761 20.1849C8.29075 20.6461 7.0069 20.8722 5.48799 20.8722C4.81894 20.8722 4.15894 20.827 3.51701 20.7366C2.87509 20.6461 2.26029 20.5195 1.67262 20.3477C1.08494 20.1758 0.524388 19.9588 0 19.7055V15.8888C0.922199 16.2958 1.87152 16.6576 2.85701 16.9922C3.8425 17.3269 4.82798 17.4806 5.79539 17.4806C6.46443 17.4806 7.0069 17.3902 7.41376 17.2183C7.82061 17.0465 8.11897 16.8023 8.30883 16.4858C8.4987 16.1692 8.58911 15.8255 8.58911 15.4276C8.58911 14.9392 8.42637 14.5231 8.10088 14.1795C7.7754 13.8358 7.32334 13.5102 6.75375 13.2117C6.18416 12.9133 5.54223 12.5877 4.82798 12.244C4.37592 12.0359 3.8877 11.7737 3.35427 11.4662C2.82084 11.1586 2.32358 10.7878 1.8444 10.3447C1.36522 9.90148 0.976446 9.36787 0.669046 8.73477C0.361646 8.10166 0.207947 7.34195 0.207947 6.46465C0.207947 5.30697 0.47014 4.32114 1.00357 3.49811C1.537 2.67508 2.28741 2.05102 3.2729 1.60785C4.25839 1.16468 5.4247 0.956657 6.76279 0.956657C7.76636 0.956657 8.73377 1.07423 9.64692 1.30939C10.5601 1.54454 11.5184 1.87917 12.513 2.32235L11.193 5.51499C10.2979 5.15322 9.50226 4.87285 8.79705 4.67387C8.09184 4.4749 7.36855 4.37541 6.63622 4.37541C6.12087 4.37541 5.68689 4.45681 5.32525 4.61961C4.9636 4.78241 4.69236 5.00851 4.5025 5.30697C4.31264 5.60544 4.22222 5.94912 4.22222 6.33803C4.22222 6.79929 4.35784 7.17915 4.62908 7.4957C4.90031 7.81225 5.30716 8.11071 5.84963 8.40013C6.3921 8.68955 7.07019 9.03324 7.8839 9.42214C8.86938 9.89245 9.71925 10.3808 10.4245 10.8873C11.1297 11.3938 11.6631 11.9907 12.0428 12.6781C12.4226 13.3655 12.6215 14.2156 12.6215 15.2286Z" fill="#F2F2F2"/>
<path d="M21.8798 5.48761C23.8689 5.48761 25.3878 5.92174 26.4456 6.78999C27.5034 7.65825 28.0368 8.96967 28.0368 10.7424V20.6097H25.216L24.4384 18.5928H24.33C23.905 19.1264 23.471 19.5515 23.028 19.8952C22.585 20.2389 22.0787 20.474 21.5091 20.6368C20.9395 20.7996 20.2343 20.872 19.4206 20.872C18.5436 20.872 17.7661 20.7002 17.0699 20.3655C16.3737 20.0309 15.8313 19.5154 15.4334 18.8189C15.0356 18.1225 14.8367 17.2452 14.8367 16.178C14.8367 14.6043 15.3882 13.4466 16.4913 12.6959C17.5943 11.9453 19.2488 11.5383 21.4549 11.4569L24.0226 11.3755V10.7243C24.0226 9.94647 23.8236 9.37667 23.4168 9.0149C23.0099 8.65313 22.4494 8.47224 21.7171 8.47224C21.0028 8.47224 20.2976 8.57172 19.6105 8.77974C18.9233 8.98776 18.2362 9.241 17.54 9.54851L16.2019 6.81712C16.9885 6.40108 17.8655 6.07549 18.842 5.84033C19.8184 5.60518 20.831 5.48761 21.8798 5.48761ZM24.0226 13.7451L22.4584 13.7993C21.1475 13.8355 20.2433 14.0707 19.737 14.5048C19.2307 14.9389 18.9776 15.5087 18.9776 16.2142C18.9776 16.8292 19.1584 17.2724 19.5201 17.5347C19.8817 17.7969 20.3518 17.9235 20.9395 17.9235C21.8075 17.9235 22.5398 17.6703 23.1275 17.1548C23.7152 16.6393 24.0226 15.9157 24.0226 14.9661V13.7451Z" fill="#F2F2F2"/>
<path d="M40.6021 5.51367C42.1843 5.51367 43.4501 5.94781 44.4175 6.80702C45.3849 7.66623 45.8641 9.05001 45.8641 10.9493V20.6087H41.8227V11.9532C41.8227 10.8951 41.6328 10.0901 41.2441 9.55649C40.8553 9.02287 40.2586 8.75154 39.4358 8.75154C38.1972 8.75154 37.3564 9.16758 36.9043 10.0087C36.4522 10.8498 36.2262 12.0618 36.2262 13.6355V20.6087H32.1848V5.79404H35.2679L35.8103 7.68432H36.0454C36.3618 7.16879 36.7596 6.75275 37.2298 6.4362C37.6999 6.11965 38.2243 5.88449 38.8029 5.73074C39.3816 5.57699 39.9873 5.51367 40.6021 5.51367Z" fill="#F2F2F2"/>
<path d="M56.2544 17.6531C56.6974 17.6531 57.1224 17.6079 57.5473 17.5174C57.9722 17.427 58.3881 17.3185 58.795 17.1828V20.1945C58.361 20.3845 57.8276 20.5473 57.1857 20.6739C56.5437 20.8005 55.8476 20.8638 55.0881 20.8638C54.2021 20.8638 53.4155 20.7191 52.7103 20.4297C52.0051 20.1403 51.4536 19.6428 51.0558 18.9283C50.6579 18.2138 50.45 17.228 50.45 15.9528V8.80775H48.5242V7.09837L50.7484 5.75078L51.9147 2.62144H54.5004V5.77791H58.6413V8.80775H54.5004V15.9528C54.5004 16.5226 54.6632 16.9386 54.9796 17.219C55.2961 17.4993 55.73 17.6531 56.2544 17.6531Z" fill="#F2F2F2"/>
<path d="M63.8213 3.05176e-05C64.418 3.05176e-05 64.9424 0.135688 65.3674 0.416062C65.7923 0.696436 66.0183 1.21196 66.0183 1.97169C66.0183 2.72236 65.8013 3.23789 65.3674 3.52731C64.9334 3.81673 64.418 3.96143 63.8213 3.96143C63.2156 3.96143 62.6912 3.81673 62.2663 3.52731C61.8413 3.23789 61.6243 2.72236 61.6243 1.97169C61.6243 1.21196 61.8413 0.696436 62.2663 0.416062C62.6912 0.135688 63.2065 3.05176e-05 63.8213 3.05176e-05ZM65.8285 5.79743V20.612H61.7871V5.79743H65.8285Z" fill="#F2F2F2"/>
<path d="M78.6145 4.37541C77.8279 4.37541 77.1318 4.52916 76.526 4.82763C75.9202 5.12609 75.4139 5.56925 75.0071 6.14809C74.6002 6.72693 74.2838 7.4143 74.0759 8.22829C73.8679 9.04228 73.7594 9.95575 73.7594 10.9687C73.7594 12.3344 73.9312 13.5011 74.2657 14.4689C74.6002 15.4366 75.1337 16.1692 75.8479 16.6847C76.5622 17.2003 77.4844 17.4445 78.6145 17.4445C79.4011 17.4445 80.1877 17.354 80.9743 17.1822C81.7608 17.0103 82.6198 16.7571 83.551 16.4315V19.8774C82.6921 20.2301 81.8513 20.4833 81.0195 20.6371C80.1877 20.7909 79.2564 20.8722 78.2257 20.8722C76.2277 20.8722 74.5912 20.4562 73.3074 19.6332C72.0235 18.8101 71.0742 17.6525 70.4503 16.1602C69.8265 14.6678 69.5191 12.9313 69.5191 10.9506C69.5191 9.48546 69.718 8.13784 70.1158 6.9259C70.5136 5.71396 71.0923 4.65578 71.8608 3.76039C72.6293 2.865 73.5786 2.17764 74.7087 1.68925C75.8389 1.20085 77.1408 0.956657 78.6055 0.956657C79.5638 0.956657 80.5312 1.07423 81.4986 1.31842C82.4661 1.56262 83.3882 1.89726 84.2743 2.32235L82.9543 5.6597C82.231 5.31602 81.4986 5.01756 80.7663 4.75527C80.034 4.49298 79.3197 4.37541 78.6145 4.37541Z" fill="#F2F2F2"/>
<path d="M100.943 5.79539V20.61H97.8423L97.2998 18.7197H97.0919C96.7755 19.2262 96.3776 19.6332 95.8985 19.9498C95.4193 20.2663 94.8949 20.5015 94.3253 20.6552C93.7557 20.809 93.159 20.8813 92.5352 20.8813C91.4773 20.8813 90.5551 20.6914 89.7685 20.3206C88.982 19.9498 88.3672 19.3619 87.9332 18.566C87.4992 17.7701 87.2732 16.739 87.2732 15.4638V5.80445H91.3146V14.4599C91.3146 15.518 91.5045 16.323 91.8842 16.8566C92.2639 17.3902 92.8697 17.6616 93.7015 17.6616C94.5242 17.6616 95.1661 17.4716 95.6363 17.1008C96.1064 16.73 96.4319 16.1692 96.6218 15.4457C96.8116 14.7221 96.902 13.8268 96.902 12.7776V5.80445H100.943V5.79539Z" fill="#F2F2F2"/>
<path d="M118.638 13.1762C118.638 14.4152 118.475 15.5096 118.14 16.4593C117.806 17.4089 117.327 18.2229 116.694 18.8741C116.061 19.5253 115.301 20.0318 114.415 20.3664C113.529 20.701 112.526 20.8729 111.414 20.8729C110.374 20.8729 109.416 20.701 108.548 20.3664C107.68 20.0318 106.92 19.5343 106.287 18.8741C105.654 18.2139 105.157 17.4089 104.805 16.4593C104.452 15.5096 104.28 14.4062 104.28 13.1762C104.28 11.5301 104.569 10.1463 105.157 9.00674C105.745 7.86715 106.568 6.9989 107.643 6.41102C108.719 5.82314 110.003 5.52468 111.495 5.52468C112.878 5.52468 114.108 5.82314 115.184 6.41102C116.26 6.9989 117.101 7.86715 117.715 9.00674C118.33 10.1463 118.638 11.5301 118.638 13.1762ZM108.394 13.1762C108.394 14.1439 108.502 14.967 108.71 15.6272C108.918 16.2874 109.253 16.7849 109.705 17.1285C110.157 17.4722 110.745 17.635 111.468 17.635C112.182 17.635 112.761 17.4632 113.213 17.1285C113.665 16.7939 113.981 16.2965 114.189 15.6272C114.397 14.9579 114.497 14.1439 114.497 13.1762C114.497 12.1994 114.397 11.3764 114.189 10.7342C113.981 10.0921 113.656 9.59463 113.204 9.26903C112.752 8.94343 112.164 8.78063 111.441 8.78063C110.374 8.78063 109.596 9.15145 109.117 9.88404C108.638 10.6166 108.394 11.711 108.394 13.1762Z" fill="#F2F2F2"/>
<path d="M130.236 5.51367C130.435 5.51367 130.679 5.52272 130.941 5.54986C131.203 5.57699 131.429 5.60411 131.601 5.64029L131.294 9.42987C131.158 9.38464 130.977 9.34847 130.733 9.33038C130.489 9.31229 130.281 9.29421 130.1 9.29421C129.576 9.29421 129.069 9.35752 128.581 9.49318C128.093 9.62885 127.65 9.83686 127.261 10.1353C126.872 10.4338 126.565 10.8227 126.339 11.302C126.113 11.7814 126.004 12.3693 126.004 13.0747V20.6087H121.963V5.79404H125.019L125.616 8.28123H125.815C126.104 7.77475 126.475 7.31349 126.909 6.89745C127.343 6.48141 127.849 6.14677 128.409 5.89353C128.97 5.64029 129.585 5.51367 130.236 5.51367Z" fill="#F2F2F2"/>
<path d="M140.401 5.51367C141.766 5.51367 142.95 5.77597 143.936 6.30054C144.921 6.82511 145.69 7.58483 146.223 8.58875C146.756 9.59267 147.028 10.8046 147.028 12.2426V14.2053H137.48C137.525 15.3448 137.869 16.2402 138.511 16.8914C139.153 17.5426 140.039 17.8682 141.178 17.8682C142.118 17.8682 142.986 17.7687 143.773 17.5788C144.559 17.3889 145.364 17.0904 146.196 16.7015V19.8308C145.464 20.1926 144.695 20.4549 143.899 20.6267C143.104 20.7986 142.127 20.88 140.988 20.88C139.505 20.88 138.194 20.6086 137.046 20.0569C135.898 19.5052 135.003 18.6732 134.361 17.5517C133.719 16.4302 133.385 15.0193 133.385 13.3099C133.385 11.5824 133.674 10.1353 134.262 8.98669C134.849 7.83806 135.672 6.96981 136.721 6.39097C137.77 5.81214 138.999 5.51367 140.401 5.51367ZM140.419 8.38977C139.632 8.38977 138.981 8.64302 138.466 9.14045C137.95 9.63789 137.652 10.4338 137.571 11.5101H143.239C143.23 10.9131 143.122 10.3795 142.914 9.90921C142.706 9.43891 142.399 9.06809 141.983 8.79676C141.567 8.52543 141.061 8.38977 140.419 8.38977Z" fill="#F2F2F2"/>
<path d="M156.82 1.23849C159.316 1.23849 161.142 1.7721 162.29 2.84838C163.438 3.92465 164.008 5.39887 164.008 7.28009C164.008 8.13026 163.881 8.9352 163.628 9.71302C163.375 10.4908 162.959 11.1692 162.381 11.7751C161.802 12.3811 161.034 12.8514 160.066 13.1951C159.099 13.5388 157.914 13.7197 156.504 13.7197H154.741V20.6114H150.636V1.23849H156.82ZM156.603 4.60298H154.732V10.3552H156.079C156.847 10.3552 157.516 10.2557 158.077 10.0477C158.638 9.83965 159.081 9.52309 159.388 9.09801C159.695 8.67293 159.849 8.11217 159.849 7.4248C159.849 6.47515 159.587 5.76066 159.053 5.2994C158.52 4.83814 157.724 4.60298 156.603 4.60298Z" fill="#F2F2F2"/>
<path d="M183.536 20.6114H179.44V12.2545H171.773V20.6114H167.669V1.23849H171.773V8.82668H179.44V1.23849H183.536V20.6114Z" fill="#F2F2F2"/>
</svg>
