<svg width="56" height="52" viewBox="0 0 56 52" fill="none" xmlns="http://www.w3.org/2000/svg">
<path d="M50.9188 14.4356H44.2749L38.9643 9.86735H29.9563L24.2032 14.4356H4.42551C2.54111 14.4356 0.999329 15.9774 0.999329 17.8618V46.0079C0.999329 47.8923 2.54111 49.4341 4.42551 49.4341H50.9188C52.8032 49.4341 54.345 47.8923 54.345 46.0079V17.8618C54.345 15.9774 52.8032 14.4356 50.9188 14.4356Z" fill="#F2F2F2"/>
<path d="M33.294 47.6725C24.7913 47.6725 17.8704 40.7544 17.8704 32.2489C17.8704 23.7434 24.7885 16.8254 33.294 16.8254C41.7966 16.8254 48.7175 23.7434 48.7175 32.2489C48.7175 40.7544 41.7995 47.6725 33.294 47.6725ZM33.294 18.1274C25.508 18.1274 19.1724 24.4629 19.1724 32.2489C19.1724 40.0349 25.508 46.3705 33.294 46.3705C41.08 46.3705 47.4155 40.0349 47.4155 32.2489C47.4155 24.4629 41.0828 18.1274 33.294 18.1274Z" fill="#2F2314"/>
<path d="M41.6109 30.6672C41.6109 30.6672 42.5503 34.6016 38.8928 36.6402C38.8928 36.6402 37.0855 37.5652 33.902 36.9571C33.902 36.9571 38.082 36.2775 38.0106 32.2689C38.0106 32.2689 38.0249 28.8998 34.5816 27.6122C31.1382 26.3245 27.3637 27.7863 25.2224 29.882C25.2224 29.882 26.7556 24.0518 32.8028 23.7206C38.85 23.3865 41.2369 28.7399 41.5539 30.3588L41.6109 30.6672Z" fill="#2F2314"/>
<path d="M40.526 36.9171C40.526 36.9171 34.3646 40.823 29.5023 34.7472C29.5023 34.7472 27.1868 31.361 30.4559 28.0347C30.4559 28.0347 24.0632 29.4537 25.1339 34.3132C26.2046 39.1727 30.7471 41.5453 34.9984 40.7059C39.2498 39.8665 40.526 36.9171 40.526 36.9171Z" fill="#2F2314"/>
<path d="M31.8922 31.4895C32.627 31.4895 33.2227 30.8938 33.2227 30.159C33.2227 29.4241 32.627 28.8285 31.8922 28.8285C31.1574 28.8285 30.5617 29.4241 30.5617 30.159C30.5617 30.8938 31.1574 31.4895 31.8922 31.4895Z" fill="#2F2314"/>
<path d="M20.1516 24.4629H0.970703V26.5357H20.1516V24.4629Z" fill="#2F2314"/>
<path d="M54.305 24.3944H46.439V26.4672H54.305V24.3944Z" fill="#2F2314"/>
<path d="M46.7217 20.8854C47.4676 20.8854 48.0722 20.2808 48.0722 19.5349C48.0722 18.7891 47.4676 18.1844 46.7217 18.1844C45.9758 18.1844 45.3712 18.7891 45.3712 19.5349C45.3712 20.2808 45.9758 20.8854 46.7217 20.8854Z" fill="#2F2314"/>
<path d="M9.37056 20.8854C10.1164 20.8854 10.721 20.2808 10.721 19.5349C10.721 18.7891 10.1164 18.1844 9.37056 18.1844C8.62471 18.1844 8.02008 18.7891 8.02008 19.5349C8.02008 20.2808 8.62471 20.8854 9.37056 20.8854Z" fill="#2F2314"/>
<path d="M34.5475 5.81399C40.6752 5.81399 45.9349 8.84586 48.1136 13.1336H50.5364C48.247 7.82388 41.949 3.99714 34.5475 3.99714C27.1488 3.99714 20.848 7.82388 18.5587 13.1336H20.9814C23.1601 8.84586 28.4169 5.81399 34.5475 5.81399Z" fill="#F2F2F2"/>
<path d="M12.7112 11.7889H5.89594V13.5933H12.7112V11.7889Z" fill="#F2F2F2"/>
</svg>
