<svg width="254" height="58" viewBox="0 0 254 58" fill="none" xmlns="http://www.w3.org/2000/svg">
<g filter="url(#filter0_d_3252_2256)">
<path d="M54.9188 14.4356H48.2749L42.9643 9.86735H33.9563L28.2032 14.4356H8.42551C6.54111 14.4356 4.99933 15.9774 4.99933 17.8618V46.0079C4.99933 47.8923 6.54111 49.4341 8.42551 49.4341H54.9188C56.8032 49.4341 58.345 47.8923 58.345 46.0079V17.8618C58.345 15.9774 56.8032 14.4356 54.9188 14.4356Z" fill="#F2F2F2"/>
<path d="M37.294 47.6725C28.7913 47.6725 21.8704 40.7544 21.8704 32.2489C21.8704 23.7434 28.7885 16.8254 37.294 16.8254C45.7966 16.8254 52.7175 23.7434 52.7175 32.2489C52.7175 40.7544 45.7995 47.6725 37.294 47.6725ZM37.294 18.1274C29.508 18.1274 23.1724 24.4629 23.1724 32.2489C23.1724 40.0349 29.508 46.3705 37.294 46.3705C45.08 46.3705 51.4155 40.0349 51.4155 32.2489C51.4155 24.4629 45.0828 18.1274 37.294 18.1274Z" fill="#2F2314"/>
<path d="M45.6109 30.6672C45.6109 30.6672 46.5503 34.6016 42.8928 36.6402C42.8928 36.6402 41.0855 37.5652 37.902 36.9571C37.902 36.9571 42.082 36.2775 42.0106 32.2689C42.0106 32.2689 42.0249 28.8998 38.5816 27.6122C35.1382 26.3245 31.3637 27.7863 29.2224 29.882C29.2224 29.882 30.7556 24.0518 36.8028 23.7206C42.85 23.3865 45.2369 28.7399 45.5539 30.3588L45.6109 30.6672Z" fill="#2F2314"/>
<path d="M44.526 36.9171C44.526 36.9171 38.3646 40.823 33.5023 34.7472C33.5023 34.7472 31.1868 31.361 34.4559 28.0347C34.4559 28.0347 28.0632 29.4537 29.1339 34.3132C30.2046 39.1727 34.7471 41.5453 38.9984 40.7059C43.2498 39.8665 44.526 36.9171 44.526 36.9171Z" fill="#2F2314"/>
<path d="M35.8922 31.4895C36.627 31.4895 37.2227 30.8938 37.2227 30.159C37.2227 29.4241 36.627 28.8285 35.8922 28.8285C35.1574 28.8285 34.5617 29.4241 34.5617 30.159C34.5617 30.8938 35.1574 31.4895 35.8922 31.4895Z" fill="#2F2314"/>
<path d="M24.1516 24.4629H4.9707V26.5357H24.1516V24.4629Z" fill="#2F2314"/>
<path d="M58.305 24.3944H50.439V26.4672H58.305V24.3944Z" fill="#2F2314"/>
<path d="M50.7217 20.8854C51.4676 20.8854 52.0722 20.2808 52.0722 19.5349C52.0722 18.7891 51.4676 18.1844 50.7217 18.1844C49.9758 18.1844 49.3712 18.7891 49.3712 19.5349C49.3712 20.2808 49.9758 20.8854 50.7217 20.8854Z" fill="#2F2314"/>
<path d="M13.3706 20.8854C14.1164 20.8854 14.721 20.2808 14.721 19.5349C14.721 18.7891 14.1164 18.1844 13.3706 18.1844C12.6247 18.1844 12.0201 18.7891 12.0201 19.5349C12.0201 20.2808 12.6247 20.8854 13.3706 20.8854Z" fill="#2F2314"/>
<path d="M38.5475 5.81399C44.6752 5.81399 49.9349 8.84586 52.1136 13.1336H54.5364C52.247 7.82388 45.949 3.99714 38.5475 3.99714C31.1488 3.99714 24.848 7.82388 22.5587 13.1336H24.9814C27.1601 8.84586 32.4169 5.81399 38.5475 5.81399Z" fill="#F2F2F2"/>
<path d="M16.7112 11.7889H9.89594V13.5933H16.7112V11.7889Z" fill="#F2F2F2"/>
<path d="M78.6215 35.2286C78.6215 36.3772 78.3412 37.3721 77.7897 38.2223C77.2382 39.0724 76.4245 39.7236 75.3576 40.1849C74.2907 40.6461 73.0069 40.8722 71.488 40.8722C70.8189 40.8722 70.1589 40.827 69.517 40.7366C68.8751 40.6461 68.2603 40.5195 67.6726 40.3477C67.0849 40.1758 66.5244 39.9588 66 39.7055V35.8888C66.9222 36.2958 67.8715 36.6576 68.857 36.9922C69.8425 37.3269 70.828 37.4806 71.7954 37.4806C72.4644 37.4806 73.0069 37.3902 73.4138 37.2183C73.8206 37.0465 74.119 36.8023 74.3088 36.4858C74.4987 36.1692 74.5891 35.8255 74.5891 35.4276C74.5891 34.9392 74.4264 34.5231 74.1009 34.1795C73.7754 33.8358 73.3233 33.5102 72.7538 33.2117C72.1842 32.9133 71.5422 32.5877 70.828 32.244C70.3759 32.0359 69.8877 31.7737 69.3543 31.4662C68.8208 31.1586 68.3236 30.7878 67.8444 30.3447C67.3652 29.9015 66.9764 29.3679 66.669 28.7348C66.3616 28.1017 66.2079 27.3419 66.2079 26.4646C66.2079 25.307 66.4701 24.3211 67.0036 23.4981C67.537 22.6751 68.2874 22.051 69.2729 21.6078C70.2584 21.1647 71.4247 20.9567 72.7628 20.9567C73.7664 20.9567 74.7338 21.0742 75.6469 21.3094C76.5601 21.5445 77.5184 21.8792 78.513 22.3223L77.193 25.515C76.2979 25.1532 75.5023 24.8728 74.7971 24.6739C74.0918 24.4749 73.3686 24.3754 72.6362 24.3754C72.1209 24.3754 71.6869 24.4568 71.3252 24.6196C70.9636 24.7824 70.6924 25.0085 70.5025 25.307C70.3126 25.6054 70.2222 25.9491 70.2222 26.338C70.2222 26.7993 70.3578 27.1791 70.6291 27.4957C70.9003 27.8122 71.3072 28.1107 71.8496 28.4001C72.3921 28.6895 73.0702 29.0332 73.8839 29.4221C74.8694 29.8924 75.7193 30.3808 76.4245 30.8873C77.1297 31.3938 77.6631 31.9907 78.0428 32.6781C78.4226 33.3655 78.6215 34.2156 78.6215 35.2286Z" fill="#F2F2F2"/>
<path d="M87.8798 25.4876C89.8689 25.4876 91.3878 25.9217 92.4456 26.79C93.5034 27.6582 94.0368 28.9697 94.0368 30.7424V40.6097H91.216L90.4384 38.5928H90.33C89.905 39.1264 89.471 39.5515 89.028 39.8952C88.585 40.2389 88.0787 40.474 87.5091 40.6368C86.9395 40.7996 86.2343 40.872 85.4206 40.872C84.5436 40.872 83.7661 40.7002 83.0699 40.3655C82.3737 40.0309 81.8313 39.5154 81.4334 38.8189C81.0356 38.1225 80.8367 37.2452 80.8367 36.178C80.8367 34.6043 81.3882 33.4466 82.4913 32.6959C83.5943 31.9453 85.2488 31.5383 87.4549 31.4569L90.0226 31.3755V30.7243C90.0226 29.9465 89.8236 29.3767 89.4168 29.0149C89.0099 28.6531 88.4494 28.4722 87.7171 28.4722C87.0028 28.4722 86.2976 28.5717 85.6105 28.7797C84.9233 28.9878 84.2362 29.241 83.54 29.5485L82.2019 26.8171C82.9885 26.4011 83.8655 26.0755 84.842 25.8403C85.8184 25.6052 86.831 25.4876 87.8798 25.4876ZM90.0226 33.7451L88.4584 33.7993C87.1475 33.8355 86.2433 34.0707 85.737 34.5048C85.2307 34.9389 84.9776 35.5087 84.9776 36.2142C84.9776 36.8292 85.1584 37.2724 85.5201 37.5346C85.8817 37.7969 86.3518 37.9235 86.9395 37.9235C87.8075 37.9235 88.5398 37.6703 89.1275 37.1548C89.7152 36.6393 90.0226 35.9157 90.0226 34.966V33.7451Z" fill="#F2F2F2"/>
<path d="M106.602 25.5137C108.184 25.5137 109.45 25.9478 110.418 26.807C111.385 27.6662 111.864 29.05 111.864 30.9493V40.6087H107.823V31.9532C107.823 30.8951 107.633 30.0901 107.244 29.5565C106.855 29.0229 106.259 28.7515 105.436 28.7515C104.197 28.7515 103.356 29.1676 102.904 30.0087C102.452 30.8498 102.226 32.0618 102.226 33.6355V40.6087H98.1848V25.794H101.268L101.81 27.6843H102.045C102.362 27.1688 102.76 26.7527 103.23 26.4362C103.7 26.1196 104.224 25.8845 104.803 25.7307C105.382 25.577 105.987 25.5137 106.602 25.5137Z" fill="#F2F2F2"/>
<path d="M122.254 37.6531C122.697 37.6531 123.122 37.6079 123.547 37.5174C123.972 37.427 124.388 37.3185 124.795 37.1828V40.1945C124.361 40.3845 123.828 40.5473 123.186 40.6739C122.544 40.8005 121.848 40.8638 121.088 40.8638C120.202 40.8638 119.416 40.7191 118.71 40.4297C118.005 40.1403 117.454 39.6428 117.056 38.9283C116.658 38.2138 116.45 37.228 116.45 35.9528V28.8077H114.524V27.0984L116.748 25.7508L117.915 22.6214H120.5V25.7779H124.641V28.8077H120.5V35.9528C120.5 36.5226 120.663 36.9386 120.98 37.219C121.296 37.4993 121.73 37.6531 122.254 37.6531Z" fill="#F2F2F2"/>
<path d="M129.821 20C130.418 20 130.942 20.1357 131.367 20.4161C131.792 20.6964 132.018 21.212 132.018 21.9717C132.018 22.7224 131.801 23.2379 131.367 23.5273C130.933 23.8167 130.418 23.9614 129.821 23.9614C129.216 23.9614 128.691 23.8167 128.266 23.5273C127.841 23.2379 127.624 22.7224 127.624 21.9717C127.624 21.212 127.841 20.6964 128.266 20.4161C128.691 20.1357 129.207 20 129.821 20ZM131.828 25.7974V40.612H127.787V25.7974H131.828Z" fill="#F2F2F2"/>
<path d="M144.615 24.3754C143.828 24.3754 143.132 24.5292 142.526 24.8276C141.92 25.1261 141.414 25.5693 141.007 26.1481C140.6 26.7269 140.284 27.4143 140.076 28.2283C139.868 29.0423 139.759 29.9558 139.759 30.9687C139.759 32.3344 139.931 33.5011 140.266 34.4689C140.6 35.4366 141.134 36.1692 141.848 36.6847C142.562 37.2003 143.484 37.4445 144.615 37.4445C145.401 37.4445 146.188 37.354 146.974 37.1822C147.761 37.0103 148.62 36.7571 149.551 36.4315V39.8774C148.692 40.2301 147.851 40.4833 147.019 40.6371C146.188 40.7909 145.256 40.8722 144.226 40.8722C142.228 40.8722 140.591 40.4562 139.307 39.6332C138.024 38.8101 137.074 37.6525 136.45 36.1602C135.827 34.6678 135.519 32.9313 135.519 30.9506C135.519 29.4855 135.718 28.1378 136.116 26.9259C136.514 25.714 137.092 24.6558 137.861 23.7604C138.629 22.865 139.579 22.1776 140.709 21.6892C141.839 21.2009 143.141 20.9567 144.605 20.9567C145.564 20.9567 146.531 21.0742 147.499 21.3184C148.466 21.5626 149.388 21.8973 150.274 22.3223L148.954 25.6597C148.231 25.316 147.499 25.0176 146.766 24.7553C146.034 24.493 145.32 24.3754 144.615 24.3754Z" fill="#F2F2F2"/>
<path d="M166.943 25.7954V40.61H163.842L163.3 38.7197H163.092C162.775 39.2262 162.378 39.6332 161.898 39.9498C161.419 40.2663 160.895 40.5015 160.325 40.6552C159.756 40.809 159.159 40.8813 158.535 40.8813C157.477 40.8813 156.555 40.6914 155.769 40.3206C154.982 39.9498 154.367 39.3619 153.933 38.566C153.499 37.7701 153.273 36.739 153.273 35.4638V25.8044H157.315V34.4599C157.315 35.518 157.504 36.323 157.884 36.8566C158.264 37.3902 158.87 37.6616 159.701 37.6616C160.524 37.6616 161.166 37.4716 161.636 37.1008C162.106 36.73 162.432 36.1692 162.622 35.4457C162.812 34.7221 162.902 33.8268 162.902 32.7776V25.8044H166.943V25.7954Z" fill="#F2F2F2"/>
<path d="M184.638 33.1762C184.638 34.4152 184.475 35.5096 184.14 36.4593C183.806 37.4089 183.327 38.2229 182.694 38.8741C182.061 39.5253 181.301 40.0318 180.415 40.3664C179.529 40.701 178.526 40.8729 177.414 40.8729C176.374 40.8729 175.416 40.701 174.548 40.3664C173.68 40.0318 172.92 39.5343 172.287 38.8741C171.654 38.2139 171.157 37.4089 170.805 36.4593C170.452 35.5096 170.28 34.4062 170.28 33.1762C170.28 31.5301 170.569 30.1463 171.157 29.0067C171.745 27.8672 172.568 26.9989 173.643 26.411C174.719 25.8231 176.003 25.5247 177.495 25.5247C178.878 25.5247 180.108 25.8231 181.184 26.411C182.26 26.9989 183.101 27.8672 183.715 29.0067C184.33 30.1463 184.638 31.5301 184.638 33.1762ZM174.394 33.1762C174.394 34.1439 174.502 34.967 174.71 35.6272C174.918 36.2874 175.253 36.7849 175.705 37.1285C176.157 37.4722 176.745 37.635 177.468 37.635C178.182 37.635 178.761 37.4632 179.213 37.1285C179.665 36.7939 179.981 36.2965 180.189 35.6272C180.397 34.9579 180.497 34.1439 180.497 33.1762C180.497 32.1994 180.397 31.3764 180.189 30.7342C179.981 30.0921 179.656 29.5946 179.204 29.269C178.752 28.9434 178.164 28.7806 177.441 28.7806C176.374 28.7806 175.596 29.1514 175.117 29.884C174.638 30.6166 174.394 31.711 174.394 33.1762Z" fill="#F2F2F2"/>
<path d="M196.236 25.5137C196.435 25.5137 196.679 25.5227 196.941 25.5499C197.203 25.577 197.429 25.6041 197.601 25.6403L197.294 29.4299C197.158 29.3846 196.977 29.3485 196.733 29.3304C196.489 29.3123 196.281 29.2942 196.1 29.2942C195.576 29.2942 195.069 29.3575 194.581 29.4932C194.093 29.6288 193.65 29.8369 193.261 30.1353C192.872 30.4338 192.565 30.8227 192.339 31.302C192.113 31.7814 192.004 32.3693 192.004 33.0747V40.6087H187.963V25.794H191.019L191.616 28.2812H191.815C192.104 27.7748 192.475 27.3135 192.909 26.8975C193.343 26.4814 193.849 26.1468 194.409 25.8935C194.97 25.6403 195.585 25.5137 196.236 25.5137Z" fill="#F2F2F2"/>
<path d="M206.401 25.5137C207.766 25.5137 208.95 25.776 209.936 26.3005C210.921 26.8251 211.69 27.5848 212.223 28.5887C212.756 29.5927 213.028 30.8046 213.028 32.2426V34.2053H203.48C203.525 35.3448 203.869 36.2402 204.511 36.8914C205.153 37.5426 206.039 37.8682 207.178 37.8682C208.118 37.8682 208.986 37.7687 209.773 37.5788C210.559 37.3889 211.364 37.0904 212.196 36.7015V39.8308C211.464 40.1926 210.695 40.4549 209.899 40.6267C209.104 40.7986 208.127 40.88 206.988 40.88C205.505 40.88 204.194 40.6086 203.046 40.0569C201.898 39.5052 201.003 38.6732 200.361 37.5517C199.719 36.4302 199.385 35.0193 199.385 33.3099C199.385 31.5824 199.674 30.1353 200.262 28.9867C200.849 27.8381 201.672 26.9698 202.721 26.391C203.77 25.8121 204.999 25.5137 206.401 25.5137ZM206.419 28.3898C205.632 28.3898 204.981 28.643 204.466 29.1405C203.95 29.6379 203.652 30.4338 203.571 31.5101H209.239C209.23 30.9131 209.122 30.3795 208.914 29.9092C208.706 29.4389 208.399 29.0681 207.983 28.7968C207.567 28.5254 207.061 28.3898 206.419 28.3898Z" fill="#F2F2F2"/>
<path d="M222.82 21.2385C225.316 21.2385 227.142 21.7721 228.29 22.8484C229.438 23.9247 230.008 25.3989 230.008 27.2801C230.008 28.1303 229.881 28.9352 229.628 29.713C229.375 30.4908 228.959 31.1692 228.381 31.7751C227.802 32.3811 227.034 32.8514 226.066 33.1951C225.099 33.5388 223.914 33.7197 222.504 33.7197H220.741V40.6114H216.636V21.2385H222.82ZM222.603 24.603H220.732V30.3552H222.079C222.847 30.3552 223.516 30.2557 224.077 30.0477C224.638 29.8397 225.081 29.5231 225.388 29.098C225.695 28.6729 225.849 28.1122 225.849 27.4248C225.849 26.4752 225.587 25.7607 225.053 25.2994C224.52 24.8381 223.724 24.603 222.603 24.603Z" fill="#F2F2F2"/>
<path d="M249.536 40.6114H245.44V32.2545H237.773V40.6114H233.669V21.2385H237.773V28.8267H245.44V21.2385H249.536V40.6114Z" fill="#F2F2F2"/>
</g>
<defs>
<filter id="filter0_d_3252_2256" x="0" y="0" width="253.536" height="59.724" filterUnits="userSpaceOnUse" color-interpolation-filters="sRGB">
<feFlood flood-opacity="0" result="BackgroundImageFix"/>
<feColorMatrix in="SourceAlpha" type="matrix" values="0 0 0 0 0 0 0 0 0 0 0 0 0 0 0 0 0 0 127 0" result="hardAlpha"/>
<feOffset dy="4"/>
<feGaussianBlur stdDeviation="2"/>
<feComposite in2="hardAlpha" operator="out"/>
<feColorMatrix type="matrix" values="0 0 0 0 0 0 0 0 0 0 0 0 0 0 0 0 0 0 0.25 0"/>
<feBlend mode="normal" in2="BackgroundImageFix" result="effect1_dropShadow_3252_2256"/>
<feBlend mode="normal" in="SourceGraphic" in2="effect1_dropShadow_3252_2256" result="shape"/>
</filter>
</defs>
</svg>
