<svg width="39" height="32" viewBox="0 0 39 32" fill="none" xmlns="http://www.w3.org/2000/svg">
<g id="calendar_month_FILL0_wght400_GRAD0_opsz40 1">
<path id="Vector" d="M8.04587 29.3333C7.33527 29.3333 6.71899 29.1129 6.19702 28.6722C5.67505 28.2315 5.41406 27.7111 5.41406 27.1111V7.11106C5.41406 6.51106 5.67505 5.99069 6.19702 5.54996C6.71899 5.1092 7.33527 4.88883 8.04587 4.88883H10.2829V2.66663H13.0464V4.88883H26.2056V2.66663H28.969V4.88883H31.2061C31.9167 4.88883 32.5329 5.1092 33.0549 5.54996C33.5769 5.99069 33.8379 6.51106 33.8379 7.11106V27.1111C33.8379 27.7111 33.5769 28.2315 33.0549 28.6722C32.5329 29.1129 31.9167 29.3333 31.2061 29.3333H8.04587ZM8.04587 27.1111H31.2061V13.1111H8.04587V27.1111ZM8.04587 10.8889H31.2061V7.11106H8.04587V10.8889ZM19.626 18.6666C19.1786 18.6666 18.8035 18.5389 18.5009 18.2833C18.1982 18.0277 18.0469 17.7111 18.0469 17.3333C18.0469 16.9555 18.1982 16.6389 18.5009 16.3833C18.8035 16.1277 19.1786 16 19.626 16C20.0734 16 20.4484 16.1277 20.7511 16.3833C21.0537 16.6389 21.2051 16.9555 21.2051 17.3333C21.2051 17.7111 21.0537 18.0277 20.7511 18.2833C20.4484 18.5389 20.0734 18.6666 19.626 18.6666ZM13.3096 18.6666C12.8622 18.6666 12.4871 18.5389 12.1845 18.2833C11.8818 18.0277 11.7305 17.7111 11.7305 17.3333C11.7305 16.9555 11.8818 16.6389 12.1845 16.3833C12.4871 16.1277 12.8622 16 13.3096 16C13.757 16 14.132 16.1277 14.4347 16.3833C14.7373 16.6389 14.8887 16.9555 14.8887 17.3333C14.8887 17.7111 14.7373 18.0277 14.4347 18.2833C14.132 18.5389 13.757 18.6666 13.3096 18.6666ZM25.9424 18.6666C25.495 18.6666 25.1199 18.5389 24.8173 18.2833C24.5146 18.0277 24.3633 17.7111 24.3633 17.3333C24.3633 16.9555 24.5146 16.6389 24.8173 16.3833C25.1199 16.1277 25.495 16 25.9424 16C26.3898 16 26.7648 16.1277 27.0675 16.3833C27.3701 16.6389 27.5215 16.9555 27.5215 17.3333C27.5215 17.7111 27.3701 18.0277 27.0675 18.2833C26.7648 18.5389 26.3898 18.6666 25.9424 18.6666ZM19.626 24C19.1786 24 18.8035 23.8722 18.5009 23.6166C18.1982 23.3611 18.0469 23.0444 18.0469 22.6666C18.0469 22.2889 18.1982 21.9722 18.5009 21.7166C18.8035 21.4611 19.1786 21.3333 19.626 21.3333C20.0734 21.3333 20.4484 21.4611 20.7511 21.7166C21.0537 21.9722 21.2051 22.2889 21.2051 22.6666C21.2051 23.0444 21.0537 23.3611 20.7511 23.6166C20.4484 23.8722 20.0734 24 19.626 24ZM13.3096 24C12.8622 24 12.4871 23.8722 12.1845 23.6166C11.8818 23.3611 11.7305 23.0444 11.7305 22.6666C11.7305 22.2889 11.8818 21.9722 12.1845 21.7166C12.4871 21.4611 12.8622 21.3333 13.3096 21.3333C13.757 21.3333 14.132 21.4611 14.4347 21.7166C14.7373 21.9722 14.8887 22.2889 14.8887 22.6666C14.8887 23.0444 14.7373 23.3611 14.4347 23.6166C14.132 23.8722 13.757 24 13.3096 24ZM25.9424 24C25.495 24 25.1199 23.8722 24.8173 23.6166C24.5146 23.3611 24.3633 23.0444 24.3633 22.6666C24.3633 22.2889 24.5146 21.9722 24.8173 21.7166C25.1199 21.4611 25.495 21.3333 25.9424 21.3333C26.3898 21.3333 26.7648 21.4611 27.0675 21.7166C27.3701 21.9722 27.5215 22.2889 27.5215 22.6666C27.5215 23.0444 27.3701 23.3611 27.0675 23.6166C26.7648 23.8722 26.3898 24 25.9424 24Z" fill="#F2F2F2"/>
</g>
</svg>
