<svg width="25" height="25" viewBox="0 0 25 25" fill="none" xmlns="http://www.w3.org/2000/svg">
<rect x="1" y="1" width="23" height="23" rx="4" fill="#FCCD35" stroke="#FCCD35" strokeWidth="2"/>
<path d="M20.7378 7.5859L10.0016 18.7277C9.9185 18.814 9.81983 18.8825 9.71121 18.9292C9.6026 18.976 9.48618 19 9.3686 19C9.25103 19 9.13461 18.976 9.02599 18.9292C8.91738 18.8825 8.81871 18.814 8.73561 18.7277L4.26219 14.0853C4.09431 13.9111 4 13.6748 4 13.4284C4 13.182 4.09431 12.9457 4.26219 12.7715C4.43007 12.5973 4.65776 12.4994 4.89518 12.4994C5.1326 12.4994 5.36029 12.5973 5.52817 12.7715L9.3686 16.7581L19.4718 6.2721C19.6397 6.09788 19.8674 6 20.1048 6C20.3422 6 20.5699 6.09788 20.7378 6.2721C20.9057 6.44632 21 6.68261 21 6.929C21 7.17538 20.9057 7.41168 20.7378 7.5859Z" fill="#424242"/>
</svg>
